<svg width="28" height="28" viewBox="0 0 28 28" fill="none" xmlns="http://www.w3.org/2000/svg">
<path fill-rule="evenodd" clip-rule="evenodd" d="M10.7898 2.26699C10.4651 2.5437 10.3028 2.68207 10.1294 2.79828C9.73191 3.06468 9.28552 3.24958 8.8161 3.34226C8.61131 3.3827 8.39867 3.39966 7.9734 3.43359C6.9049 3.51887 6.37063 3.5615 5.92491 3.71894C4.89398 4.08307 4.08307 4.89398 3.71894 5.92491C3.5615 6.37063 3.51887 6.9049 3.43359 7.9734C3.39966 8.39867 3.3827 8.61131 3.34226 8.8161C3.24958 9.28552 3.06468 9.73191 2.79828 10.1294C2.68207 10.3028 2.54371 10.4651 2.26699 10.7898C1.57174 11.6057 1.2241 12.0136 1.02026 12.4401C0.548749 13.4266 0.548749 14.5733 1.02026 15.5598C1.22411 15.9864 1.57174 16.3942 2.26699 17.2101C2.54367 17.5348 2.68207 17.6972 2.79828 17.8705C3.06468 18.268 3.24958 18.7144 3.34226 19.1838C3.3827 19.3886 3.39966 19.6013 3.43359 20.0265C3.51887 21.095 3.5615 21.6293 3.71894 22.075C4.08307 23.106 4.89398 23.9169 5.92491 24.281C6.37063 24.4384 6.9049 24.481 7.9734 24.5664C8.39867 24.6002 8.61131 24.6173 8.8161 24.6577C9.28552 24.7504 9.73191 24.9353 10.1294 25.2017C10.3028 25.3178 10.4651 25.4562 10.7898 25.7329C11.6057 26.4282 12.0136 26.7758 12.4401 26.9797C13.4266 27.4512 14.5733 27.4512 15.5598 26.9797C15.9864 26.7758 16.3942 26.4282 17.2101 25.7329C17.5348 25.4562 17.6972 25.3178 17.8705 25.2017C18.268 24.9353 18.7144 24.7504 19.1838 24.6577C19.3886 24.6173 19.6013 24.6002 20.0265 24.5664C21.095 24.481 21.6293 24.4384 22.075 24.281C23.106 23.9169 23.9169 23.106 24.281 22.075C24.4384 21.6293 24.481 21.095 24.5664 20.0265C24.6002 19.6013 24.6173 19.3886 24.6577 19.1838C24.7504 18.7144 24.9353 18.268 25.2017 17.8705C25.3178 17.6972 25.4562 17.5348 25.7329 17.2101C26.4282 16.3942 26.7758 15.9864 26.9797 15.5598C27.4512 14.5733 27.4512 13.4266 26.9797 12.4401C26.7758 12.0136 26.4282 11.6057 25.7329 10.7898C25.4562 10.4651 25.3178 10.3028 25.2017 10.1294C24.9353 9.73191 24.7504 9.28552 24.6577 8.8161C24.6173 8.61131 24.6002 8.39867 24.5664 7.9734C24.481 6.9049 24.4384 6.37063 24.281 5.92491C23.9169 4.89398 23.106 4.08307 22.075 3.71894C21.6293 3.5615 21.095 3.51887 20.0265 3.43359C19.6013 3.39966 19.3886 3.3827 19.1838 3.34226C18.7144 3.24958 18.268 3.06468 17.8705 2.79828C17.6972 2.68207 17.5348 2.54371 17.2101 2.26699C16.3942 1.57174 15.9864 1.22411 15.5598 1.02026C14.5733 0.548749 13.4266 0.548749 12.4401 1.02026C12.0136 1.2241 11.6057 1.57174 10.7898 2.26699ZM19.8313 11.1508C20.255 10.727 20.255 10.04 19.8313 9.61618C19.4076 9.1924 18.7204 9.1924 18.2966 9.61618L11.8297 16.0832L9.70324 13.9568C9.27947 13.533 8.59239 13.533 8.16862 13.9568C7.74484 14.3805 7.74484 15.0676 8.16862 15.4914L11.0623 18.3852C11.4861 18.8089 12.1732 18.8089 12.597 18.3852L19.8313 11.1508Z" fill="#38FF13"/>
</svg>
