<svg width="32" height="32" viewBox="0 0 32 32" fill="none" xmlns="http://www.w3.org/2000/svg">
<path fill-rule="evenodd" clip-rule="evenodd" d="M12.7898 4.26699C12.4651 4.5437 12.3028 4.68207 12.1294 4.79828C11.7319 5.06468 11.2855 5.24958 10.8161 5.34226C10.6113 5.3827 10.3987 5.39966 9.9734 5.43359C8.9049 5.51887 8.37063 5.5615 7.92491 5.71894C6.89398 6.08307 6.08307 6.89398 5.71894 7.92491C5.5615 8.37063 5.51887 8.9049 5.43359 9.9734C5.39966 10.3987 5.3827 10.6113 5.34226 10.8161C5.24958 11.2855 5.06468 11.7319 4.79828 12.1294C4.68207 12.3028 4.54371 12.4651 4.26699 12.7898C3.57174 13.6057 3.2241 14.0136 3.02026 14.4401C2.54875 15.4266 2.54875 16.5733 3.02026 17.5598C3.22411 17.9864 3.57174 18.3942 4.26699 19.2101C4.54367 19.5348 4.68207 19.6972 4.79828 19.8705C5.06468 20.268 5.24958 20.7144 5.34226 21.1838C5.3827 21.3886 5.39966 21.6013 5.43359 22.0265C5.51887 23.095 5.5615 23.6293 5.71894 24.075C6.08307 25.106 6.89398 25.9169 7.92491 26.281C8.37063 26.4384 8.9049 26.481 9.9734 26.5664C10.3987 26.6002 10.6113 26.6173 10.8161 26.6577C11.2855 26.7504 11.7319 26.9353 12.1294 27.2017C12.3028 27.3178 12.4651 27.4562 12.7898 27.7329C13.6057 28.4282 14.0136 28.7758 14.4401 28.9797C15.4266 29.4512 16.5733 29.4512 17.5598 28.9797C17.9864 28.7758 18.3942 28.4282 19.2101 27.7329C19.5348 27.4562 19.6972 27.3178 19.8705 27.2017C20.268 26.9353 20.7144 26.7504 21.1838 26.6577C21.3886 26.6173 21.6013 26.6002 22.0265 26.5664C23.095 26.481 23.6293 26.4384 24.075 26.281C25.106 25.9169 25.9169 25.106 26.281 24.075C26.4384 23.6293 26.481 23.095 26.5664 22.0265C26.6002 21.6013 26.6173 21.3886 26.6577 21.1838C26.7504 20.7144 26.9353 20.268 27.2017 19.8705C27.3178 19.6972 27.4562 19.5348 27.7329 19.2101C28.4282 18.3942 28.7758 17.9864 28.9797 17.5598C29.4512 16.5733 29.4512 15.4266 28.9797 14.4401C28.7758 14.0136 28.4282 13.6057 27.7329 12.7898C27.4562 12.4651 27.3178 12.3028 27.2017 12.1294C26.9353 11.7319 26.7504 11.2855 26.6577 10.8161C26.6173 10.6113 26.6002 10.3987 26.5664 9.9734C26.481 8.9049 26.4384 8.37063 26.281 7.92491C25.9169 6.89398 25.106 6.08307 24.075 5.71894C23.6293 5.5615 23.095 5.51887 22.0265 5.43359C21.6013 5.39966 21.3886 5.3827 21.1838 5.34226C20.7144 5.24958 20.268 5.06468 19.8705 4.79828C19.6972 4.68207 19.5348 4.54371 19.2101 4.26699C18.3942 3.57174 17.9864 3.22411 17.5598 3.02026C16.5733 2.54875 15.4266 2.54875 14.4401 3.02026C14.0136 3.2241 13.6057 3.57174 12.7898 4.26699ZM21.8313 13.1508C22.255 12.727 22.255 12.04 21.8313 11.6162C21.4076 11.1924 20.7204 11.1924 20.2966 11.6162L13.8297 18.0832L11.7032 15.9568C11.2795 15.533 10.5924 15.533 10.1686 15.9568C9.74484 16.3805 9.74484 17.0676 10.1686 17.4914L13.0623 20.3852C13.4861 20.8089 14.1732 20.8089 14.597 20.3852L21.8313 13.1508Z" fill="#FFA200"/>
</svg>
